<?xml version="1.0" encoding="utf-8"?>
<!-- Generator: Adobe Illustrator 23.0.3, SVG Export Plug-In . SVG Version: 6.00 Build 0)  -->
<svg version="1.1" id="layer" xmlns="http://www.w3.org/2000/svg" xmlns:xlink="http://www.w3.org/1999/xlink" x="0px" y="0px"
	 viewBox="0 0 652 652" style="enable-background:new 0 0 652 652;" xml:space="preserve">
<style type="text/css">
	.st0{fill-rule:evenodd;clip-rule:evenodd;fill:#F37320;}
	.st1{fill-rule:evenodd;clip-rule:evenodd;fill:#F15E22;}
	.st2{fill-rule:evenodd;clip-rule:evenodd;fill:#EC008B;}
	.st3{fill-rule:evenodd;clip-rule:evenodd;fill:#F13AB1;}
	.st4{fill-rule:evenodd;clip-rule:evenodd;fill:#FD913C;}
	.st5{fill-rule:evenodd;clip-rule:evenodd;fill:#F05524;}
</style>
<path class="st0" d="M321.2,571.4h-0.7H321.2z"/>
<path class="st0" d="M332.8,569.9c-0.3,0.1-0.6,0.1-1,0.3C332.2,570.1,332.5,570.1,332.8,569.9"/>
<path class="st0" d="M312.9,570.5c-0.1,0-0.3,0-0.4-0.1C312.6,570.5,312.8,570.5,312.9,570.5"/>
<path class="st0" d="M329.6,570.7c-0.7,0.1-1.6,0.3-2.2,0.4C328,571,328.8,570.8,329.6,570.7"/>
<path class="st0" d="M325.6,571.2c-0.6,0.1-1.3,0.1-1.8,0.1C324.3,571.4,325,571.4,325.6,571.2"/>
<path class="st1" d="M327.2,571c-0.6,0-1.2,0.1-1.6,0.1C326,571.2,326.6,571,327.2,571"/>
<path class="st1" d="M312.6,570.5c-0.9-0.1-1.9-0.4-2.8-0.6C310.7,570,311.6,570.3,312.6,570.5"/>
<path class="st1" d="M331.9,570.1c-0.7,0.3-1.6,0.4-2.4,0.6C330.3,570.6,331.2,570.3,331.9,570.1"/>
<path class="st1" d="M320.4,571.4c-2.5-0.1-4.9-0.3-7.4-0.9C315.4,571.1,317.9,571.4,320.4,571.4"/>
<path class="st1" d="M323.7,571.3c-0.7,0-1.6,0.1-2.5,0.1C322.1,571.5,323,571.3,323.7,571.3"/>
<path class="st1" d="M483.2,155.8L483.2,155.8h-0.1c-1.5-0.6-2.8-0.7-4.4-0.7c1.8,0.1,3.8,0.6,5.8,1.3
	C484,156.3,483.7,156,483.2,155.8"/>
<path class="st2" d="M473.2,155.8L473.2,155.8h-0.1c-0.4,0.3-0.9,0.4-1.5,0.6c2.7-0.9,4.9-1.2,7.2-1.2
	C476.7,154.9,474.8,155.2,473.2,155.8"/>
<path class="st1" d="M530.3,171.9L530.3,171.9L530.3,171.9c-1.6-0.6-2.9-0.7-4.5-0.7c1.9,0.1,3.7,0.4,5.8,1.3
	C531,172.2,530.7,172,530.3,171.9"/>
<path class="st2" d="M520.2,171.8L520.2,171.8L520.2,171.8c-0.5,0.3-1,0.6-1.6,0.7c2.5-1,5-1.3,7.1-1.3
	C523.8,171,521.9,171.2,520.2,171.8"/>
<path class="st1" d="M532.3,172.9L532.3,172.9L532.3,172.9c-1.6-0.6-2.9-0.6-4.5-0.6c1.8,0,3.7,0.4,5.8,1.2
	C533.1,173.3,532.8,173.1,532.3,172.9"/>
<path class="st2" d="M522.3,172.8L522.3,172.8L522.3,172.8c-0.5,0.3-1,0.4-1.6,0.7c2.5-1,4.9-1.3,7.1-1.3
	C525.8,172.1,523.9,172.3,522.3,172.8"/>
<path class="st3" d="M155.6,72.3L155.6,72.3h0.1c0.4-0.1,1-0.3,1.5-0.4c-39.7,6-127.7,147.6-175,277.5
	c-50.3,138.3-38.2,205,1.3,219.5h0.1c39.5,14.3,91.6-29,142-167.4c13.6-37.3,25.2-77.7,34.4-116.9
	C135.5,179.2,130.1,81.9,155.6,72.3"/>
<path class="st4" d="M306.7,568.9L306.7,568.9h-0.1H306.7c-39.7-14.6-51.6-81.4-1.3-219.5c5-13.7,10.3-27.6,16.2-41.3
	C269.9,184.6,190.2,64.9,157.2,71.8c2.7-0.3,5-0.1,7.1,0.6h0.1v0.1C190,82,184.5,179.2,160,284.7c9,39.1,20.6,79.3,34.4,116.8
	c39.7,109,80.5,158.9,115.3,168.2C308.8,569.5,307.8,569.3,306.7,568.9"/>
<path class="st5" d="M164.3,72.5L164.3,72.5h-0.1c-2.1-0.7-4.4-0.9-6.8-0.6c-0.7,0.1-1,0.3-1.6,0.4h-0.1
	c-25.5,9.6-20.1,106.9,4.3,212.3C184.3,179.2,189.8,82.1,164.3,72.5"/>
<path class="st4" d="M475.9,73c-37,13.4-107,122.8-154.2,235c5.8,13.7,11.2,27.6,16.2,41.3c50.3,138.2,38.3,205-1.3,219.4v0.1
	c-1.2,0.3-2.5,0.7-3.5,1c34.9-9,76.1-58.8,115.7-168.4c13.4-36.4,24.8-75.5,33.6-113.7C457.9,183.2,451.7,85.7,475.9,73"/>
<path class="st5" d="M336.4,568.8L336.4,568.8h0.1c39.5-14.4,51.5-81.4,1.3-219.5c-5.2-13.7-10.5-27.6-16.4-41.3
	c-5.8,13.7-11.2,27.6-16.2,41.3c-50.3,138.2-38.2,205.1,1.3,219.5c1,0.4,2.1,0.6,3.1,0.9c0.9,0.3,1.9,0.6,2.8,0.7h0.4
	c2.7,0.6,5,0.9,7.5,1h0.7h2.5c0.6-0.1,1.3-0.1,1.8-0.3c0.7,0,1.2-0.1,1.9-0.1c0.6-0.1,1.3-0.3,2.1-0.4c0.9-0.1,1.6-0.1,2.4-0.4
	c0.4,0,0.7-0.1,1-0.1C334,569.6,335.2,569.3,336.4,568.8"/>
<path class="st3" d="M488.5,72.9c24.5,12.2,18.4,109.8-6.2,215c8.8,38.2,20.3,77.3,33.5,113.5C566.2,539.7,618.3,583.1,658,568.8
	h0.1c39.4-14.6,51.5-81.2,1.2-219.5C613.6,223.8,530,87.5,488.5,72.9"/>
<path class="st5" d="M488.5,72.9c-1.9-0.6-3.8-1.2-5.8-1.3c-2.2,0-4.4,0.6-7.1,1.5c-24,12.7-18,110,6.6,214.8
	C507,182.8,513,85.2,488.5,72.9"/>
</svg>
